<svg xmlns="http://www.w3.org/2000/svg" width="39" height="39" viewBox="0 0 39 39">
    <path fill="#2B42A1" fill-rule="evenodd" d="M23.938 21.287c0 2.031.335 4.613-.704 6.182-.794 1.199-2.462 2.393-4.65 1.9-3.732-.84-4.44-6.077-2.186-5.653 1.045.197.613 1.454 1.013 2.335.817 1.8 3.451 1.752 4.231.078.4-.857.311-5.237.23-6.46-1.083-.072-2.518.253-2.844-.624-.51-1.374.857-1.451 1.865-1.445 3.676.02 3.045-.045 3.045 3.687zm-5.142-10.248c1.416-.278 2.575.186 3.436.848l7.614 6.077c.383.504.219 1.251-.265 1.527-.722.41-1.188-.078-1.612-.42-.849-.68-1.624-1.249-2.496-1.982-.862-.725-1.657-1.345-2.558-2.046-2.833-2.208-3.017-2.961-5.73-.799l-6.404 5.11c-1.212.875-2.536-.613-1.267-1.647l3.79-2.994c1.327-1.107 3.76-3.335 5.492-3.674zM7.086 38.947c2.4 0 28.017.132 29.108-.062 1.251-.22 2.223-1.182 2.57-2.274.36-1.131.16-25.249.16-29.017 0-2.902.73-6.413-2.334-7.39-.901-.288-3.574-.16-4.699-.16-2.4 0-28.018-.132-29.108.061-3.397.6-2.73 4.456-2.73 6.977 0 2.376-.14 28.116.066 29.178.644 3.35 4.435 2.687 6.967 2.687z"/>
</svg>
